<svg viewBox="0 0 512 512" fill="none" xmlns="http://www.w3.org/2000/svg">
<rect width="512" height="512" rx="256" fill="#EEEFF4"/>
<path d="M384 135.089V145.863C370.44 147.453 358.945 156.108 348.617 183.576L259.173 414H250.102L149.701 176.422C137.757 148.425 125.723 146.305 118 146.305V135.089C132.099 136.148 147.276 137.208 165.955 137.208C188.317 137.208 214.988 136.679 236.811 135.089V146.305C216.066 146.305 198.195 146.305 198.195 164.675C198.195 170.681 200.081 178.276 204.032 188.257L271.116 351.381L331.285 196.381C335.237 186.402 337.122 178.011 337.122 171.476C337.122 154.695 324.639 147.63 296.891 145.775V135C315.748 136.06 325.628 136.59 342.69 136.59C359.753 136.59 372.505 136.06 384 135V135.089Z" fill="#88070A"/>
</svg>
