<svg xmlns="http://www.w3.org/2000/svg" width="430" height="53" fill="none" viewBox="0 0 430 53"><g clip-path="url(#a)"><mask id="b" width="430" height="53" x="0" y="0" maskUnits="userSpaceOnUse" style="mask-type:luminance"><path fill="#fff" d="M430 0H0v53h430V0Z"/></mask><g mask="url(#b)"><path fill="#fff" d="M26.695 13.42V14.5c-1.36.159-2.514 1.025-3.55 3.775l-8.977 23.065h-.91L3.18 17.557C1.983 14.755.775 14.543 0 14.543V13.42c1.415.106 2.938.212 4.813.212 2.244 0 4.92-.053 7.11-.212v1.123c-2.081 0-3.875 0-3.875 1.839 0 .6.19 1.361.586 2.36l6.732 16.329 6.039-15.516c.396-.999.586-1.838.586-2.493 0-1.68-1.253-2.387-4.038-2.572V13.41c1.893.106 2.884.16 4.596.16 1.713 0 2.993-.054 4.146-.16v.01ZM39.71 36.088c0 2.988 1.144 3.854 4.163 3.854v1.123c-1.252-.053-4.119-.212-6.624-.212-2.506 0-5.372.159-6.624.212v-1.123c3.019 0 4.173-.866 4.173-3.854V19.29c0-3.226-.992-4.747-4.173-4.747V13.42c1.144.106 2.298.16 3.397.16 2.136 0 4.12-.213 5.687-.735v23.252-.01Zm.666-32.658c0 1.883-1.604 3.43-3.497 3.43-1.892 0-3.496-1.547-3.496-3.43 0-1.883 1.577-3.43 3.496-3.43 1.92 0 3.497 1.574 3.497 3.43ZM64.557 14.649c.379.292.694.442.965.442.64 0 1.045-.76 1.225-2.36H68c-.162 1.962-.216 4.508-.216 9.123H66.53c-.667-3.987-2.515-8.151-7.454-8.151-2.568 0-4.488 1.441-4.488 4.11 0 3.228 3.29 4.722 7.03 7.1 4.146 2.617 7.48 4.977 7.48 9.38 0 4.924-4.38 7.523-9.355 7.523-1.577 0-3.019-.238-4.325-.76-.776-.371-1.524-.866-2.245-1.441a.718.718 0 0 0-.504-.212c-.478 0-.91.68-1.127 2.016H50.29c.163-2.308.217-5.296.217-10.724h1.252c.721 6.003 2.136 10.034 7.616 10.034 2.19 0 4.867-1.282 4.867-5.11 0-3.12-2.623-4.827-6.2-7.028-3.985-2.467-7.535-4.562-7.535-9.018 0-4.774 3.767-6.922 8.093-6.922 2.884 0 4.966 1.176 5.957 1.963v.035ZM101.274 27.283c0 10.299-5.48 14.542-12.428 14.542-6.949 0-12.428-4.243-12.428-14.542 0-10.3 5.48-14.597 12.428-14.597 6.949 0 12.428 4.27 12.428 14.597Zm-19.53 0c0 9.592 2.965 13.473 7.111 13.473s7.111-3.881 7.111-13.473c0-9.593-2.938-13.527-7.11-13.527-4.174 0-7.112 3.908-7.112 13.527ZM129.628 16.904c0 1.838-1.199 3.377-3.127 3.377-1.523 0-2.911-1-2.911-2.776 0-1.335.883-2.308 1.874-2.909-.27-.371-.667-.521-1.144-.521-4.597 0-7.616 6.108-7.616 10.087V35.54c0 3.483 2.19 4.402 5.795 4.402v1.123c-1.685-.053-5.02-.212-8.418-.212-2.514 0-5.209.16-6.462.212v-1.123c3.02 0 4.173-.866 4.173-3.854V19.29c0-3.227-.991-4.748-4.173-4.748V13.42a37.2 37.2 0 0 0 3.398.16c2.136 0 4.119-.213 5.687-.734v6.71c1.145-3.121 4.119-6.87 7.94-6.87 2.965 0 4.993 1.91 4.993 4.218h-.009ZM220.312 40.818l-10.417-24.772a2.2 2.2 0 0 0-.479-.725 3.48 3.48 0 0 0-.612-.504 3.221 3.221 0 0 0-.605-.31 2.417 2.417 0 0 0-.467-.14 5.354 5.354 0 0 0-.316-.08c-.117-.027-.234-.045-.342-.071a9.955 9.955 0 0 1-.307-.053c-.091-.009-.144-.018-.163-.018-.108 0-.161-.053-.161-.159v-.469c0-.106.053-.159.161-.159h11.672c.08 0 .126.018.135.045a.22.22 0 0 1 .018.106v.468s-.009.062-.027.097c-.018.036-.062.062-.126.062h-.297c-.334.053-.712.107-1.137.16a5.32 5.32 0 0 0-1.206.282 2.372 2.372 0 0 0-.948.602c-.251.265-.387.627-.387 1.096 0 .168.028.362.09.583.064.221.118.398.189.54l7.499 17.884.046.071c.017.026.044.044.072.07a.49.49 0 0 0 .08.063c.064 0 .136-.071.217-.213l6.886-18.273a2.32 2.32 0 0 0 .134-.778c0-.451-.152-.84-.451-1.176-.306-.327-.72-.54-1.261-.628-.081-.009-.207-.035-.387-.062-.181-.026-.37-.053-.568-.088-.198-.036-.387-.062-.568-.088a3.009 3.009 0 0 0-.396-.036c-.108 0-.163-.053-.163-.159v-.469s0-.061.018-.097c.018-.035.064-.062.136-.062h9.986c.081 0 .125.018.134.062.019.036.019.071.019.098v.468s0 .07-.019.106c-.009.035-.062.053-.134.053h-.731c-.72.142-1.315.416-1.775.822-.46.407-.847.884-1.145 1.433-.306.548-.558 1.14-.774 1.768-.208.627-.433 1.229-.649 1.812l-7.77 20.581c-.117.327-.26.513-.432.584-.171.061-.406.097-.712.097h-.928c-.316 0-.524-.142-.613-.424h-.019ZM236.247 40.022s0-.044.018-.088c.019-.045.063-.071.136-.071h.432a34.912 34.912 0 0 1 1.703-.07 5.81 5.81 0 0 0 1.577-.213 2.305 2.305 0 0 0 1.162-.716c.308-.345.451-.875.451-1.6v-20.44c0-.504-.108-.91-.315-1.229a2.36 2.36 0 0 0-.829-.769 4.185 4.185 0 0 0-1.162-.433 15.935 15.935 0 0 0-1.325-.239h-.415c-.063 0-.108-.018-.126-.062a.227.227 0 0 1-.027-.097v-.469s.009-.062.027-.097c.018-.035.063-.062.126-.062h18.81c.234 0 .405.044.513.124.108.088.171.265.198.557l.352 5.623a.153.153 0 0 1-.099.141.488.488 0 0 1-.235.053.514.514 0 0 1-.234-.035.345.345 0 0 1-.136-.115 1.358 1.358 0 0 1-.198-.575c-.035-.256-.081-.53-.126-.84a8.257 8.257 0 0 0-.198-.972 3.594 3.594 0 0 0-.387-.928 2.505 2.505 0 0 0-.704-.743c-.297-.212-.675-.363-1.135-.433h-8.247c-.17 0-.26.088-.26.256v10.026c0 .132.062.194.198.194h6.839a4.1 4.1 0 0 0 .983-.124c.324-.08.604-.238.848-.46.242-.22.441-.53.594-.919.154-.398.226-.902.226-1.52 0-.107.053-.16.161-.16h.479c.108 0 .162.053.162.16v8.3c0 .063-.018.107-.063.125a.277.277 0 0 1-.099.026h-.479c-.062 0-.108-.017-.125-.062a.227.227 0 0 1-.027-.097c0-.725-.072-1.308-.226-1.76-.153-.441-.351-.795-.603-1.051a1.806 1.806 0 0 0-.865-.504 4.227 4.227 0 0 0-1.019-.124h-6.786c-.136 0-.198.062-.198.194v9.451c0 .372.062.672.18.902.117.23.278.398.486.513.207.115.441.194.703.23.261.035.541.062.829.062h6.588c.766 0 1.406-.168 1.921-.513.513-.345.927-.76 1.243-1.256a5.86 5.86 0 0 0 .703-1.53c.153-.53.243-.98.288-1.36.037-.363.235-.54.595-.54.063 0 .117.027.172.08a.264.264 0 0 1 .071.177l-.649 6.515a.935.935 0 0 1-.108.186.195.195 0 0 1-.171.088h-22.027c-.081 0-.125-.026-.134-.07-.01-.045-.019-.071-.019-.089v-.54l-.018-.008ZM262.357 40.667s-.064-.07-.064-.106v-.468c0-.106.055-.16.163-.16h.495c.18 0 .371 0 .541-.017.18-.009.343-.027.488-.035a.76.76 0 0 0 .332-.08c.333-.16.604-.363.812-.619.207-.256.368-.557.486-.893.108-.336.19-.707.225-1.105.037-.398.064-.83.064-1.282V15.754c0-.345-.145-.627-.424-.84a3.233 3.233 0 0 0-.991-.486 6.38 6.38 0 0 0-1.146-.22 11.536 11.536 0 0 0-.882-.063c-.064 0-.108-.017-.126-.061a.228.228 0 0 1-.027-.098v-.468s.009-.062.027-.098c.018-.035.062-.062.126-.062h7.237l18.764 20.352c.064.062.108.115.136.141.027.036.062.044.099.044.053 0 .08-.017.099-.061a.51.51 0 0 0 .018-.115V20.352c0-1.282-.046-2.326-.136-3.139-.09-.813-.26-1.45-.513-1.9-.253-.452-.586-.761-1.01-.929-.423-.168-.964-.256-1.622-.256h-1.009c-.064 0-.108-.018-.126-.062a.231.231 0 0 1-.028-.098V13.5s.01-.062.028-.097c.018-.036.062-.062.126-.062h10.282c.083 0 .127.018.136.062.009.044.018.07.018.097v.469s-.009.061-.027.097c-.018.035-.063.062-.127.062-.26 0-.603.053-1.017.159a6.88 6.88 0 0 0-1.217.442 3.722 3.722 0 0 0-1.018.716c-.28.283-.425.61-.425.972v23.729c0 .283-.035.486-.116.61-.082.124-.28.185-.613.185-.261 0-.468-.061-.613-.176a4.506 4.506 0 0 1-.513-.504l-20.387-22.173a1.735 1.735 0 0 0-.198-.168c-.037-.026-.09-.026-.163-.026-.072 0-.099.062-.099.194V37.45c0 .363.091.672.271.938.179.265.405.495.685.68.279.186.585.336.919.442.333.106.667.195.991.266a7.59 7.59 0 0 0 1.451.15c.063 0 .108.026.135.08a.255.255 0 0 1 .018.079v.468s-.009.062-.027.098c-.018.035-.063.062-.126.062h-10.283s-.064-.018-.099-.045ZM308.403 15.294a2.862 2.862 0 0 0-.407-.088h-7.597c-.487.106-.883.292-1.198.575a3.378 3.378 0 0 0-.757.981 4.85 4.85 0 0 0-.451 1.211c-.108.433-.207.849-.297 1.256a6.22 6.22 0 0 0-.082.415c-.027.16-.054.257-.081.283a.166.166 0 0 1-.136.062h-.35c-.082 0-.118-.027-.118-.08v-.636l.73-6.056a3.16 3.16 0 0 1 .108-.407c.046-.132.171-.194.37-.194.09 0 .171.026.234.08.063.052.126.114.19.185.062.07.117.141.18.203a.511.511 0 0 0 .207.133c.163.062.306.106.442.124.135.017.297.026.469.026h21.315c.17 0 .324-.009.467-.026.136-.018.29-.062.442-.124a.458.458 0 0 0 .207-.133c.064-.062.118-.132.181-.203.063-.07.126-.133.189-.186a.357.357 0 0 1 .235-.08c.198 0 .315.063.369.195.045.133.08.265.108.407l.73 6.056v.636c0 .053-.036.08-.116.08h-.352c-.064 0-.108-.018-.136-.062-.027-.026-.053-.115-.081-.283-.027-.16-.054-.3-.08-.415a75.367 75.367 0 0 0-.299-1.256 5.62 5.62 0 0 0-.451-1.211 3.657 3.657 0 0 0-.757-.981c-.306-.283-.711-.469-1.197-.575h-7.616a2.845 2.845 0 0 0-.406.088c-.108.036-.172.186-.172.46v21.492c0 .389.099.734.299 1.034.198.3.468.575.801.805.334.23.73.424 1.19.566.451.141.937.238 1.451.291.144.018.334.018.55.018h.576c.064 0 .108.018.127.053.018.035.027.07.027.097v.451s-.009.062-.027.097c-.019.036-.063.062-.127.062h-13.59c-.063 0-.109-.017-.127-.062a.227.227 0 0 1-.027-.097v-.45s.009-.054.027-.098c.018-.035.064-.053.127-.053h.559c.234 0 .414 0 .568-.018.513-.053.999-.15 1.45-.291a4.335 4.335 0 0 0 1.19-.566c.342-.239.604-.504.802-.805.198-.3.297-.654.297-1.034V15.754c0-.274-.054-.424-.17-.46h-.009ZM329.267 15.471a2.248 2.248 0 0 0-.722-.725 3.473 3.473 0 0 0-1.045-.442 4.881 4.881 0 0 0-1.262-.159c-.108 0-.163-.053-.163-.159v-.469c0-.106.046-.159.136-.159h10.716c.063 0 .108.018.126.062.019.036.027.071.027.098v.468s-.008.062-.027.097c-.018.036-.063.062-.126.062-.397 0-.803.027-1.217.08a3.248 3.248 0 0 0-1.144.353 2.163 2.163 0 0 0-.847.787c-.216.345-.324.805-.324 1.388v13.889c0 1.29.233 2.475.693 3.536.46 1.061 1.1 1.99 1.919 2.759.821.769 1.794 1.361 2.92 1.785 1.127.425 2.361.628 3.705.628 1.343 0 2.604-.177 3.776-.54 1.171-.362 2.19-.901 3.056-1.608a7.558 7.558 0 0 0 2.036-2.626c.495-1.043.739-2.237.739-3.598V18.636c0-.442-.018-.893-.044-1.361a4.078 4.078 0 0 0-.325-1.317c-.181-.416-.478-.77-.874-1.079-.398-.3-.955-.513-1.677-.628a7.187 7.187 0 0 0-.82-.088c-.216-.009-.361-.009-.423-.009-.108 0-.163-.053-.163-.16v-.468c0-.106.055-.159.163-.159h9.733c.063 0 .109.018.127.062.017.035.026.07.026.097v.469s-.009.062-.035.097a.144.144 0 0 1-.118.062c-.478 0-.892.035-1.253.106-.36.07-.64.142-.82.221a1.817 1.817 0 0 0-.612.398c-.19.177-.343.371-.469.584a2.625 2.625 0 0 0-.288.662c-.064.23-.101.434-.101.628v12.704c0 1.822-.242 3.466-.729 4.916-.486 1.458-1.225 2.687-2.208 3.704-.982 1.017-2.217 1.795-3.704 2.343s-3.226.822-5.219.822c-.946 0-1.928-.08-2.938-.23a18.319 18.319 0 0 1-2.946-.707 14.262 14.262 0 0 1-2.704-1.22 9.602 9.602 0 0 1-2.218-1.777 7.882 7.882 0 0 1-1.505-2.352c-.37-.875-.55-1.865-.55-2.97V16.47c0-.371-.09-.707-.269-.999h-.009ZM359.296 40.101s0-.044.019-.088c.018-.044.062-.07.135-.07.072 0 .207-.01.378-.036.171-.027.352-.053.532-.08.179-.026.351-.053.513-.088.163-.036.271-.053.334-.071.747-.168 1.279-.442 1.577-.822.298-.38.442-.858.442-1.423V16.938c0-.646-.135-1.159-.415-1.53-.279-.371-.595-.654-.956-.84a3.465 3.465 0 0 0-1.045-.353 4.868 4.868 0 0 0-.685-.071h-.748c-.062 0-.108-.018-.126-.062a.24.24 0 0 1-.026-.097v-.469s0-.053.017-.088c.009-.036.063-.053.135-.07h.09c.046 0 .145 0 .289-.01.144-.008.36-.008.631-.017.279 0 .667-.018 1.162-.027 1.461-.027 2.92-.07 4.381-.133a103.36 103.36 0 0 1 4.38-.097h2.001a9.68 9.68 0 0 1 3.199.76 8.768 8.768 0 0 1 2.623 1.707 7.705 7.705 0 0 1 1.756 2.502c.425.954.641 1.998.641 3.12 0 .805-.117 1.521-.36 2.14a5.53 5.53 0 0 1-.983 1.68 6.544 6.544 0 0 1-1.487 1.3c-.577.37-1.198.707-1.866 1.007l5.994 9.601a8.902 8.902 0 0 0 1.821 2.13 8.138 8.138 0 0 0 2.37 1.415c.108.027.171.062.189.106a.438.438 0 0 1 .027.168c0 .195-.055.327-.163.39-.108.061-.269.096-.495.096-1.118 0-2.163-.15-3.127-.442-.964-.3-1.875-.83-2.75-1.59a9.414 9.414 0 0 1-1.207-1.292 20.15 20.15 0 0 1-1.145-1.635l-5.119-7.877-4.704-.212h-.154c-.09 0-.161.008-.198.035a.365.365 0 0 0-.081.08.543.543 0 0 0-.018.159v8.947c0 .344.046.654.136.91.09.256.242.477.467.672.217.186.506.336.849.46a7.5 7.5 0 0 0 1.279.274c.081.009.198.035.343.062.152.026.315.053.495.088.18.035.352.062.523.089.172.026.315.035.432.035.081 0 .127.017.136.062.009.044.018.07.018.097v.468s-.009.062-.027.098c-.019.035-.063.062-.127.062h-12.166c-.064 0-.108-.027-.127-.08a1.159 1.159 0 0 1-.027-.31v-.23l.018-.026Zm7.833-13.305a.715.715 0 0 0 .09.283c.044.088.143.133.288.141.053 0 .144 0 .288.018.135.018.298.027.487.035.18.01.387.027.603.036.217.009.433.017.64.017 1.307 0 2.407-.159 3.318-.468.909-.31 1.631-.752 2.198-1.317.568-.566.964-1.265 1.208-2.087.243-.822.37-1.741.37-2.767 0-1.026-.181-2.007-.532-2.829a6.097 6.097 0 0 0-1.461-2.086c-.612-.566-1.351-.99-2.199-1.282a8.325 8.325 0 0 0-2.73-.433c-.189 0-.352 0-.515.008-.161 0-.315.01-.477.018-.162 0-.324.009-.504.018-.181 0-.379.017-.604.026-.081 0-.18.018-.307.044-.126.027-.189.124-.189.266v11.758l.036.583-.008.018ZM386.622 40.022s0-.044.018-.088c.019-.045.063-.071.136-.071h.432a34.954 34.954 0 0 1 1.704-.07c.577 0 1.108-.08 1.576-.213a2.319 2.319 0 0 0 1.164-.716c.306-.345.451-.875.451-1.6v-20.44c0-.504-.109-.91-.317-1.229a2.36 2.36 0 0 0-.829-.769 4.185 4.185 0 0 0-1.162-.433 15.935 15.935 0 0 0-1.325-.239h-.415c-.062 0-.108-.018-.126-.062a.227.227 0 0 1-.027-.097v-.469s.009-.062.027-.097c.018-.035.064-.062.126-.062h18.81c.234 0 .405.044.513.124.108.088.172.265.198.557l.352 5.623a.153.153 0 0 1-.099.141.485.485 0 0 1-.235.053.514.514 0 0 1-.234-.035.326.326 0 0 1-.134-.115c-.092-.133-.163-.319-.2-.575-.035-.256-.081-.53-.125-.84a8.268 8.268 0 0 0-.199-.972 3.594 3.594 0 0 0-.387-.928 2.501 2.501 0 0 0-.703-.743c-.298-.212-.676-.363-1.136-.433h-8.247c-.17 0-.26.088-.26.256v10.026c0 .132.062.194.198.194h6.841c.333 0 .658-.044.982-.124.325-.08.603-.238.847-.46.242-.22.442-.53.594-.919.154-.398.226-.902.226-1.52 0-.107.054-.16.163-.16h.477c.108 0 .162.053.162.16v8.3c0 .063-.018.107-.063.125a.277.277 0 0 1-.099.026h-.477c-.064 0-.109-.017-.127-.062a.227.227 0 0 1-.027-.097c0-.725-.072-1.308-.226-1.76-.152-.441-.351-.795-.603-1.051a1.806 1.806 0 0 0-.865-.504 4.227 4.227 0 0 0-1.019-.124h-6.786c-.136 0-.198.062-.198.194v9.451c0 .372.062.672.18.902.117.23.28.398.487.513.207.115.442.194.702.23.262.035.541.062.829.062h6.588c.766 0 1.406-.168 1.921-.513.513-.345.927-.76 1.243-1.256a5.86 5.86 0 0 0 .703-1.53c.153-.53.243-.98.288-1.36.037-.363.235-.54.596-.54.062 0 .116.027.171.08a.26.26 0 0 1 .071.177l-.649 6.515a.889.889 0 0 1-.108.186.194.194 0 0 1-.17.088h-22.027c-.082 0-.126-.026-.135-.07-.01-.045-.019-.071-.019-.089v-.54l-.018-.008ZM414.156 40.199c-.172 0-.28-.133-.316-.407-.143-1.22-.261-2.157-.332-2.83-.073-.671-.136-1.175-.172-1.51-.037-.337-.054-.558-.063-.655 0-.097-.009-.168-.009-.203 0-.142.018-.248.044-.319.037-.07.145-.106.325-.106.091 0 .19.062.289.186.099.124.198.274.288.442a5.18 5.18 0 0 1 .37.92c.684 1.431 1.586 2.519 2.713 3.262 1.117.733 2.513 1.105 4.19 1.105.712 0 1.388-.106 2.037-.328a5.273 5.273 0 0 0 1.712-.954c.497-.416.884-.91 1.172-1.494.289-.584.432-1.238.432-1.98 0-.92-.189-1.751-.567-2.485a8.45 8.45 0 0 0-1.469-2.033 15.63 15.63 0 0 0-2.073-1.76 85.864 85.864 0 0 0-2.398-1.635 51.171 51.171 0 0 1-2.387-1.68 13.865 13.865 0 0 1-2.073-1.874 8.824 8.824 0 0 1-1.47-2.219c-.378-.805-.559-1.724-.559-2.74 0-1.017.216-1.866.641-2.653.433-.778.99-1.45 1.694-1.998a7.78 7.78 0 0 1 2.37-1.264 8.501 8.501 0 0 1 2.686-.433c.487 0 .982.044 1.469.123.496.089.982.186 1.46.301.478.115.964.239 1.451.38.486.133.974.265 1.442.38l1.108-.132c.063 0 .118.053.154.141a.83.83 0 0 1 .045.283l.513 4.129.036.194c.028.133.037.203.037.23 0 .115-.099.177-.297.177-.082 0-.163-.009-.244-.027a.394.394 0 0 1-.172-.07.861.861 0 0 1-.134-.24c-.055-.123-.117-.264-.19-.415-.072-.159-.144-.31-.217-.468a1.868 1.868 0 0 0-.225-.39 6.283 6.283 0 0 0-1.099-1.37 7.817 7.817 0 0 0-1.451-1.087 7.95 7.95 0 0 0-1.668-.716 6.112 6.112 0 0 0-1.766-.265c-.513 0-1.046.088-1.587.274a5.866 5.866 0 0 0-1.468.742 4.074 4.074 0 0 0-1.091 1.159c-.279.45-.423.954-.423 1.494 0 .857.18 1.626.54 2.325a7.724 7.724 0 0 0 1.434 1.936c.594.592 1.27 1.167 2.036 1.706.767.54 1.551 1.088 2.343 1.636a59.652 59.652 0 0 1 2.361 1.715 14.706 14.706 0 0 1 2.11 1.971 9.943 9.943 0 0 1 1.541 2.378c.406.867.64 1.848.703 2.953 0 1.15-.244 2.175-.739 3.077a7.217 7.217 0 0 1-1.947 2.272 8.829 8.829 0 0 1-2.749 1.405 10.278 10.278 0 0 1-3.144.487c-.902 0-1.677-.062-2.345-.195a14.548 14.548 0 0 1-1.721-.433 38.06 38.06 0 0 1-1.217-.433c-.333-.133-.603-.195-.829-.195-.08 0-.135 0-.179.018l-.974.195h.018Z"/><path fill="#7F7F7F" d="M194.356.088h-53.94V53h53.94V.088Z"/><path fill="#88070A" d="M194.356 20.926h-13.112v12.863h13.112V20.926Z"/></g></g><defs><clipPath id="a"><path fill="#fff" d="M0 0h430v53H0z"/></clipPath></defs></svg>