<svg xmlns="http://www.w3.org/2000/svg" width="186" height="23" fill="none" viewBox="0 0 186 23"><g clip-path="url(#a)"><mask id="b" width="186" height="23" x="0" y="0" maskUnits="userSpaceOnUse" style="mask-type:luminance"><path fill="#fff" d="M186 0H0v23h186V0Z"/></mask><g mask="url(#b)"><path fill="#000" d="M11.547 5.824v.468c-.588.069-1.087.445-1.536 1.638L6.128 17.94h-.393L1.376 7.62C.858 6.402.336 6.31 0 6.31v-.487c.612.046 1.27.092 2.082.092.97 0 2.128-.023 3.076-.092v.487c-.9 0-1.677 0-1.677.798 0 .261.082.591.254 1.025l2.912 7.086 2.612-6.734c.171-.433.253-.798.253-1.081 0-.73-.542-1.036-1.746-1.117V5.82c.818.046 1.247.07 1.988.07.74 0 1.294-.024 1.793-.07v.004ZM17.177 15.66c0 1.297.495 1.673 1.8 1.673v.488c-.541-.023-1.78-.092-2.865-.092-1.083 0-2.323.069-2.865.092v-.488c1.306 0 1.805-.375 1.805-1.672V8.37c0-1.4-.429-2.06-1.805-2.06v-.487c.495.046.994.069 1.47.069.924 0 1.781-.092 2.46-.319v10.09-.003Zm.288-14.171c0 .817-.694 1.488-1.512 1.488-.82 0-1.513-.671-1.513-1.488C14.44.67 15.122 0 15.953 0c.83 0 1.512.683 1.512 1.489ZM27.925 6.357c.163.127.3.192.417.192.277 0 .452-.33.53-1.024h.542c-.07.851-.094 1.956-.094 3.959h-.541c-.29-1.73-1.088-3.537-3.225-3.537-1.11 0-1.941.625-1.941 1.784 0 1.4 1.423 2.048 3.04 3.08 1.794 1.136 3.237 2.16 3.237 4.07 0 2.138-1.895 3.266-4.047 3.266-.682 0-1.306-.104-1.871-.33a5.135 5.135 0 0 1-.971-.625.31.31 0 0 0-.218-.093c-.207 0-.394.296-.488.875h-.542c.07-1.001.094-2.298.094-4.654h.542c.312 2.605.924 4.355 3.294 4.355.947 0 2.105-.556 2.105-2.218 0-1.354-1.134-2.094-2.682-3.05-1.723-1.07-3.259-1.98-3.259-3.913 0-2.072 1.63-3.004 3.5-3.004 1.248 0 2.149.51 2.578.852v.015ZM43.807 11.84c0 4.469-2.37 6.31-5.376 6.31-3.006 0-5.376-1.841-5.376-6.31 0-4.47 2.37-6.335 5.376-6.335 3.006 0 5.376 1.853 5.376 6.334Zm-8.448 0c0 4.162 1.283 5.846 3.076 5.846 1.793 0 3.076-1.684 3.076-5.847 0-4.162-1.27-5.87-3.076-5.87-1.805 0-3.076 1.696-3.076 5.87ZM56.072 7.335c0 .798-.519 1.466-1.353 1.466-.659 0-1.26-.434-1.26-1.205 0-.579.383-1.001.812-1.262-.117-.161-.289-.226-.495-.226-1.989 0-3.295 2.65-3.295 4.377v4.938c0 1.511.948 1.91 2.507 1.91v.488c-.729-.023-2.171-.092-3.641-.092-1.088 0-2.253.069-2.795.092v-.488c1.306 0 1.805-.376 1.805-1.672V8.37c0-1.4-.43-2.06-1.805-2.06v-.487c.495.046.994.069 1.47.069.923 0 1.781-.092 2.46-.319v2.912c.495-1.354 1.781-2.98 3.434-2.98 1.283 0 2.16.828 2.16 1.83h-.004ZM95.298 17.713l-4.506-10.75a.95.95 0 0 0-.207-.314 1.507 1.507 0 0 0-.527-.353 1.043 1.043 0 0 0-.202-.062 2.273 2.273 0 0 0-.136-.034c-.051-.012-.102-.02-.149-.03l-.132-.024-.07-.008c-.047 0-.07-.023-.07-.069v-.203c0-.046.023-.069.07-.069h5.048c.035 0 .055.008.059.02.008.014.008.03.008.045v.204s-.004.026-.012.042c-.008.015-.027.027-.055.027h-.129c-.144.023-.307.046-.491.069a2.294 2.294 0 0 0-.522.122c-.164.058-.3.146-.41.261a.665.665 0 0 0-.167.476c0 .073.012.157.039.253s.05.173.082.234l3.243 7.762.02.03c.007.012.02.02.03.031a.22.22 0 0 0 .036.027c.028 0 .059-.03.094-.092l2.978-7.93a1.01 1.01 0 0 0 .058-.338.745.745 0 0 0-.195-.51.921.921 0 0 0-.545-.273c-.035-.003-.09-.015-.168-.026-.078-.012-.16-.024-.245-.039-.086-.015-.168-.027-.246-.038a1.299 1.299 0 0 0-.172-.016c-.046 0-.07-.023-.07-.069v-.203s0-.027.008-.042c.008-.015.028-.027.059-.027h4.319c.035 0 .054.008.058.027.008.015.008.03.008.042v.203s0 .031-.008.046c-.004.016-.027.023-.058.023h-.316c-.312.062-.569.18-.768.357a2.28 2.28 0 0 0-.495.622 4.722 4.722 0 0 0-.335.767c-.09.272-.187.533-.28.787l-3.361 8.931c-.051.142-.113.223-.188.253a.923.923 0 0 1-.307.042h-.402c-.137 0-.226-.061-.265-.184h-.008ZM102.191 17.368s0-.02.008-.038c.007-.02.027-.031.058-.031h.187c.242-.015.483-.027.737-.03.249 0 .48-.035.682-.093a.998.998 0 0 0 .503-.31c.133-.15.195-.38.195-.695V7.3a.957.957 0 0 0-.137-.533 1.019 1.019 0 0 0-.358-.334 1.814 1.814 0 0 0-.503-.188 6.833 6.833 0 0 0-.573-.104h-.179c-.028 0-.047-.007-.055-.027a.097.097 0 0 1-.012-.042V5.87s.004-.027.012-.042c.008-.016.027-.027.055-.027h8.136c.101 0 .175.019.222.054.047.038.074.115.086.241l.152 2.44c0 .027-.016.05-.043.062a.213.213 0 0 1-.102.023.224.224 0 0 1-.101-.016.152.152 0 0 1-.059-.05.577.577 0 0 1-.085-.249l-.055-.364a3.575 3.575 0 0 0-.086-.422 1.548 1.548 0 0 0-.167-.403 1.083 1.083 0 0 0-.795-.51h-3.568c-.073 0-.112.038-.112.11v4.351c0 .058.027.085.085.085h2.959c.144 0 .284-.02.425-.054a.84.84 0 0 0 .367-.2c.105-.095.19-.23.257-.398.066-.173.097-.392.097-.66 0-.046.023-.07.07-.07h.207c.047 0 .07.024.07.07v3.602c0 .027-.007.046-.027.054a.118.118 0 0 1-.043.011h-.207c-.027 0-.047-.007-.054-.026a.096.096 0 0 1-.012-.043c0-.314-.031-.568-.097-.763a1.214 1.214 0 0 0-.261-.457.782.782 0 0 0-.375-.218 1.816 1.816 0 0 0-.44-.054h-2.936c-.058 0-.085.027-.085.084v4.101c0 .162.027.292.077.392.051.1.121.173.211.222.089.05.191.085.304.1.113.015.234.027.358.027h2.85c.332 0 .608-.073.831-.223.222-.15.401-.33.538-.544.136-.215.238-.434.304-.664.066-.23.105-.426.125-.59.015-.158.101-.235.257-.235.027 0 .05.012.074.035a.115.115 0 0 1 .031.076l-.281 2.828a.411.411 0 0 1-.046.08.086.086 0 0 1-.074.039h-9.528c-.035 0-.055-.012-.059-.03-.003-.02-.007-.032-.007-.04v-.233l-.008-.004ZM113.485 17.648s-.028-.03-.028-.046v-.203c0-.046.024-.07.071-.07h.214c.078 0 .16 0 .234-.007.078-.004.148-.012.211-.015a.324.324 0 0 0 .143-.035.976.976 0 0 0 .351-.268c.09-.112.16-.242.211-.388a2.18 2.18 0 0 0 .097-.48c.016-.172.028-.36.028-.556V6.837a.442.442 0 0 0-.183-.365 1.404 1.404 0 0 0-.429-.21 2.76 2.76 0 0 0-.496-.097 4.976 4.976 0 0 0-.381-.027c-.028 0-.047-.007-.055-.026a.097.097 0 0 1-.012-.043v-.203s.004-.027.012-.042c.008-.016.027-.027.055-.027h3.13l8.117 8.832c.027.027.046.05.058.061.012.015.027.02.043.02.023 0 .035-.008.043-.028a.217.217 0 0 0 .008-.05v-5.8c0-.557-.02-1.01-.059-1.362-.039-.353-.113-.63-.222-.825a.864.864 0 0 0-.437-.403 1.915 1.915 0 0 0-.702-.111h-.436c-.027 0-.047-.008-.054-.027a.097.097 0 0 1-.012-.042v-.204s.004-.027.012-.042c.007-.015.027-.027.054-.027h4.448c.035 0 .055.008.058.027.004.02.008.03.008.042v.204s-.004.027-.011.042c-.008.015-.028.027-.055.027-.113 0-.261.023-.44.069-.18.046-.355.111-.527.192a1.617 1.617 0 0 0-.44.31.59.59 0 0 0-.184.422v10.298c0 .122-.015.21-.05.264-.035.054-.121.081-.265.081a.417.417 0 0 1-.265-.077 1.844 1.844 0 0 1-.222-.218l-8.819-9.622a.714.714 0 0 0-.086-.073c-.015-.012-.039-.012-.07-.012-.031 0-.043.027-.043.085v8.401c0 .158.04.292.117.407.078.115.176.215.297.296.12.08.253.145.397.191a3.25 3.25 0 0 0 1.056.18c.028 0 .047.012.059.035.004.012.008.023.008.035v.203s-.004.027-.012.042c-.008.016-.027.027-.055.027h-4.447s-.028-.007-.043-.019ZM133.402 6.637a1.215 1.215 0 0 0-.176-.038h-3.286a1.1 1.1 0 0 0-.518.25c-.137.122-.242.26-.328.425a2.118 2.118 0 0 0-.195.526 20.29 20.29 0 0 0-.128.544c-.012.05-.024.112-.036.18-.011.07-.023.112-.035.124a.07.07 0 0 1-.058.026h-.152c-.036 0-.051-.011-.051-.034v-.276l.316-2.628c.012-.062.027-.12.047-.177.019-.057.073-.084.16-.084.039 0 .074.011.101.034.027.023.054.05.082.08.027.032.051.062.078.09a.22.22 0 0 0 .089.057.877.877 0 0 0 .394.065h9.22c.074 0 .141-.004.203-.012a.806.806 0 0 0 .191-.053.197.197 0 0 0 .089-.058c.028-.027.051-.057.079-.088a.8.8 0 0 1 .081-.08.154.154 0 0 1 .102-.035c.085 0 .136.027.159.084.02.058.035.115.047.177l.316 2.628v.276c0 .023-.016.034-.05.034h-.153c-.027 0-.046-.007-.058-.026-.012-.012-.023-.05-.035-.123a4.181 4.181 0 0 0-.035-.18c-.04-.173-.082-.357-.129-.545a2.492 2.492 0 0 0-.195-.526 1.6 1.6 0 0 0-.328-.426 1.082 1.082 0 0 0-.518-.25h-3.294a1.17 1.17 0 0 0-.175.04c-.047.015-.075.08-.075.199v9.326c0 .17.043.319.129.45.086.13.203.248.347.348.144.1.316.184.514.246.195.061.406.103.628.126.062.008.145.008.238.008h.249c.028 0 .047.008.055.023s.012.03.012.042v.196s-.004.027-.012.042c-.008.016-.027.027-.055.027h-5.878c-.027 0-.047-.008-.055-.027a.097.097 0 0 1-.012-.042v-.196s.004-.023.012-.042c.008-.015.028-.023.055-.023h.241c.102 0 .18 0 .246-.008.222-.023.432-.065.627-.126.196-.062.367-.142.515-.246a1.28 1.28 0 0 0 .347-.349.806.806 0 0 0 .129-.449V6.837c0-.12-.024-.184-.074-.2h-.004ZM142.427 6.714a.964.964 0 0 0-.312-.315 1.506 1.506 0 0 0-.452-.192 2.11 2.11 0 0 0-.546-.069c-.047 0-.07-.023-.07-.069v-.203c0-.046.019-.069.058-.069h4.636c.027 0 .046.008.054.027.008.015.012.03.012.042v.203s-.004.027-.012.043c-.008.015-.027.026-.054.026-.172 0-.348.012-.527.035a1.406 1.406 0 0 0-.495.153.937.937 0 0 0-.366.342c-.094.15-.14.349-.14.602v6.027c0 .56.1 1.075.299 1.535.199.46.476.863.831 1.197.355.334.776.59 1.263.775a4.496 4.496 0 0 0 1.602.272c.581 0 1.127-.076 1.634-.234a3.871 3.871 0 0 0 1.321-.698c.375-.307.667-.69.881-1.14.214-.452.32-.97.32-1.56V8.086c0-.191-.008-.387-.019-.59a1.771 1.771 0 0 0-.141-.572 1.2 1.2 0 0 0-.378-.468c-.172-.13-.413-.223-.725-.273a3.103 3.103 0 0 0-.355-.038c-.093-.004-.156-.004-.183-.004-.047 0-.07-.023-.07-.069V5.87c0-.046.023-.07.07-.07h4.21c.027 0 .047.009.055.028a.11.11 0 0 1 .011.042v.203s-.004.027-.015.042c-.012.016-.027.027-.051.027-.206 0-.386.016-.542.046-.155.031-.277.062-.354.096a.782.782 0 0 0-.265.173 1.122 1.122 0 0 0-.203.253 1.146 1.146 0 0 0-.168.56v5.513c0 .79-.105 1.504-.316 2.133a4.172 4.172 0 0 1-.955 1.608c-.425.441-.959.779-1.602 1.017-.643.238-1.396.356-2.257.356-.41 0-.834-.034-1.271-.1a7.9 7.9 0 0 1-1.275-.306 6.167 6.167 0 0 1-1.169-.53 4.157 4.157 0 0 1-.96-.77c-.276-.3-.49-.638-.651-1.021-.16-.38-.237-.81-.237-1.29V7.147a.813.813 0 0 0-.117-.433h-.004ZM155.417 17.402s-.001-.019.007-.038.027-.03.059-.03c.031 0 .09-.004.163-.016l.23-.035c.078-.011.153-.023.223-.038s.117-.023.144-.03c.323-.073.553-.192.682-.357a.974.974 0 0 0 .191-.618V7.35c0-.28-.058-.502-.179-.663a1.218 1.218 0 0 0-.414-.364 1.488 1.488 0 0 0-.452-.154 2.09 2.09 0 0 0-.296-.03h-.324c-.027 0-.046-.008-.054-.027a.097.097 0 0 1-.012-.043v-.203s0-.023.008-.038c.004-.016.027-.023.058-.031h.039c.02 0 .063 0 .125-.004s.156-.004.273-.008c.121 0 .289-.007.503-.011.632-.012 1.263-.03 1.895-.058a44.54 44.54 0 0 1 1.894-.042h.866c.491.035.951.142 1.384.33.433.184.811.434 1.134.74a3.339 3.339 0 0 1 1.038 2.44c0 .35-.051.66-.157.93a2.375 2.375 0 0 1-.425.728 2.831 2.831 0 0 1-.643.564 6.117 6.117 0 0 1-.807.437l2.593 4.167c.218.353.479.663.787.924.308.265.651.468 1.026.614.046.012.073.027.081.046.008.02.012.043.012.073 0 .085-.024.142-.07.169a.44.44 0 0 1-.215.042 4.64 4.64 0 0 1-1.352-.192 3.325 3.325 0 0 1-1.19-.69 4.084 4.084 0 0 1-.522-.56 8.997 8.997 0 0 1-.495-.71l-2.214-3.418-2.035-.092h-.067c-.039 0-.07.003-.085.015a.145.145 0 0 0-.035.034.23.23 0 0 0-.008.07v3.882c0 .15.02.284.058.395a.672.672 0 0 0 .203.292c.093.08.218.145.367.2.151.05.335.088.553.118.035.004.086.015.148.027.066.012.137.023.215.038.077.016.152.027.226.039.074.011.136.015.187.015.035 0 .054.008.058.027.004.02.008.03.008.042v.203s-.004.027-.012.043c-.007.015-.027.027-.054.027h-5.263c-.028 0-.047-.012-.055-.035a.552.552 0 0 1-.011-.134v-.1l.008-.012Zm3.388-5.774a.317.317 0 0 0 .038.123c.02.039.062.058.125.062.023 0 .063 0 .125.007.058.008.129.012.21.016.078.003.168.011.261.015.094.004.187.008.277.008.565 0 1.041-.07 1.435-.204.393-.134.706-.326.951-.571.246-.246.417-.549.522-.906.106-.357.16-.755.16-1.2 0-.446-.078-.871-.229-1.228a2.66 2.66 0 0 0-.632-.906 2.657 2.657 0 0 0-.952-.556 3.59 3.59 0 0 0-1.181-.188c-.081 0-.152 0-.222.004-.07 0-.137.004-.206.008-.071 0-.141.003-.219.007-.078 0-.164.008-.261.012a.698.698 0 0 0-.133.019c-.054.011-.081.054-.081.115v5.103l.015.253-.003.008ZM167.237 17.368s0-.02.007-.038c.008-.02.028-.031.059-.031h.187c.242-.015.483-.027.737-.03.25 0 .48-.035.682-.093a.998.998 0 0 0 .503-.31c.133-.15.195-.38.195-.695V7.3a.957.957 0 0 0-.137-.533 1.019 1.019 0 0 0-.358-.334 1.814 1.814 0 0 0-.503-.188 6.833 6.833 0 0 0-.573-.104h-.179c-.027 0-.047-.007-.055-.027a.097.097 0 0 1-.012-.042V5.87s.004-.027.012-.042c.008-.016.028-.027.055-.027h8.136c.101 0 .175.019.222.054.047.038.074.115.085.241l.153 2.44c0 .027-.016.05-.043.062a.21.21 0 0 1-.102.023.224.224 0 0 1-.101-.016.143.143 0 0 1-.058-.05.563.563 0 0 1-.086-.249l-.055-.364a3.383 3.383 0 0 0-.086-.422 1.548 1.548 0 0 0-.167-.403 1.083 1.083 0 0 0-.795-.51h-3.568c-.074 0-.112.038-.112.11v4.351c0 .058.027.085.085.085h2.959c.145 0 .285-.02.425-.054a.835.835 0 0 0 .367-.2 1.06 1.06 0 0 0 .257-.398c.066-.173.097-.392.097-.66 0-.046.024-.07.071-.07h.206c.047 0 .07.024.07.07v3.602c0 .027-.008.046-.027.054a.118.118 0 0 1-.043.011h-.206c-.028 0-.047-.007-.055-.026a.096.096 0 0 1-.012-.043c0-.314-.031-.568-.097-.763a1.214 1.214 0 0 0-.261-.457.782.782 0 0 0-.375-.218 1.816 1.816 0 0 0-.44-.054h-2.936c-.058 0-.085.027-.085.084v4.101c0 .162.027.292.077.392.051.1.121.173.211.222.09.05.191.085.304.1.113.015.234.027.358.027h2.85c.332 0 .608-.073.831-.223.222-.15.401-.33.538-.544.136-.215.238-.434.304-.664.066-.23.105-.426.125-.59.015-.158.101-.235.257-.235.027 0 .05.012.074.035a.11.11 0 0 1 .031.076l-.281 2.828a.411.411 0 0 1-.046.08.086.086 0 0 1-.074.039h-9.528c-.036 0-.055-.012-.059-.03-.004-.02-.008-.032-.008-.04v-.233l-.007-.004ZM179.147 17.445c-.075 0-.121-.058-.137-.177-.062-.53-.113-.936-.144-1.227-.031-.292-.058-.51-.074-.657-.016-.145-.023-.241-.027-.283 0-.043-.004-.073-.004-.089 0-.061.008-.107.019-.138.016-.03.062-.046.14-.046.04 0 .083.027.125.08.043.055.086.12.125.193a2.176 2.176 0 0 1 .16.399c.296.621.686 1.093 1.173 1.415.484.319 1.088.48 1.813.48.308 0 .6-.046.881-.142.281-.096.527-.234.741-.415.214-.18.382-.395.506-.648.126-.253.188-.537.188-.86 0-.398-.082-.759-.246-1.077a3.674 3.674 0 0 0-.635-.883 6.765 6.765 0 0 0-.897-.763 36.266 36.266 0 0 0-1.037-.71 22.1 22.1 0 0 1-1.033-.729 6.044 6.044 0 0 1-.897-.813 3.846 3.846 0 0 1-.635-.963 2.773 2.773 0 0 1-.242-1.19c0-.44.093-.809.277-1.15.187-.338.429-.63.733-.868a3.365 3.365 0 0 1 1.025-.548 3.664 3.664 0 0 1 1.162-.188c.211 0 .425.02.636.054.214.038.424.08.631.13.207.05.417.104.628.165.21.058.421.115.623.165l.48-.058c.027 0 .051.023.066.062a.34.34 0 0 1 .019.123l.223 1.791.015.085a.656.656 0 0 1 .016.1c0 .05-.043.076-.128.076a.49.49 0 0 1-.106-.011.17.17 0 0 1-.074-.031.38.38 0 0 1-.058-.104c-.024-.053-.051-.115-.083-.18l-.093-.203a.8.8 0 0 0-.098-.17 2.711 2.711 0 0 0-.475-.594 3.387 3.387 0 0 0-.628-.472 3.411 3.411 0 0 0-.721-.31 2.636 2.636 0 0 0-.764-.116c-.222 0-.452.039-.686.12-.234.08-.445.187-.636.322a1.758 1.758 0 0 0-.471.502 1.217 1.217 0 0 0-.184.649c0 .372.078.706.234 1.009.157.303.363.583.62.84s.55.506.881.74c.332.234.671.472 1.014.71.343.238.686.487 1.021.744.335.257.64.545.913.856.268.31.494.656.666 1.032.176.376.277.802.304 1.281 0 .5-.105.944-.319 1.335a3.146 3.146 0 0 1-.842.986 3.827 3.827 0 0 1-1.19.61 4.43 4.43 0 0 1-1.36.211c-.39 0-.725-.026-1.014-.084a6.305 6.305 0 0 1-.744-.188c-.207-.069-.382-.134-.527-.188a.992.992 0 0 0-.358-.084c-.035 0-.059 0-.078.007l-.421.085h.008Z"/><path fill="#7F7F7F" d="M84.07.038H60.738V23H84.07V.038Z"/><path fill="#88070A" d="M84.07 9.081h-5.672v5.582h5.672V9.081Z"/></g></g><defs><clipPath id="a"><path fill="#fff" d="M0 0h186v23H0z"/></clipPath></defs></svg>