<svg xmlns="http://www.w3.org/2000/svg" width="13" height="13" fill="none" viewBox="0 0 13 13"><g clip-path="url(#a)"><path fill="#AFAFAF" d="m12.623 9.523-1.811-1.811c-.647-.647-1.746-.388-2.005.453-.194.582-.84.905-1.423.776-1.293-.324-3.04-2.005-3.363-3.363-.194-.582.194-1.229.776-1.423.841-.259 1.1-1.358.453-2.005L3.44.34c-.518-.453-1.294-.453-1.747 0L.464 1.568c-1.228 1.294.13 4.721 3.17 7.76 3.039 3.04 6.466 4.463 7.76 3.17l1.229-1.23c.452-.517.452-1.293 0-1.745Z"/></g><defs><clipPath id="a"><path fill="#fff" d="M0 0h12.976v12.976H0z"/></clipPath></defs></svg>